<?xml version="1.0" encoding="UTF-8" standalone="no"?>
<svg
   viewBox="0 0 512 512"
   version="1.1"
   id="svg1"
   sodipodi:docname="loupe-g.svg"
   inkscape:version="1.3.1 (91b66b0, 2023-11-16)"
   xmlns:inkscape="http://www.inkscape.org/namespaces/inkscape"
   xmlns:sodipodi="http://sodipodi.sourceforge.net/DTD/sodipodi-0.dtd"
   xmlns="http://www.w3.org/2000/svg"
   xmlns:svg="http://www.w3.org/2000/svg">
  <defs
     id="defs1" />
  <sodipodi:namedview
     id="namedview1"
     pagecolor="#ffffff"
     bordercolor="#000000"
     borderopacity="0.25"
     inkscape:showpageshadow="2"
     inkscape:pageopacity="0.0"
     inkscape:pagecheckerboard="0"
     inkscape:deskcolor="#d1d1d1"
     inkscape:zoom="0.4609375"
     inkscape:cx="256"
     inkscape:cy="256"
     inkscape:window-width="1440"
     inkscape:window-height="449"
     inkscape:window-x="0"
     inkscape:window-y="25"
     inkscape:window-maximized="0"
     inkscape:current-layer="svg1" />
  <!--! Font Awesome Pro 6.4.2 by @fontawesome - https://fontawesome.com License - https://fontawesome.com/license (Commercial License) Copyright 2023 Fonticons, Inc. -->
  <path
     d="m 416,208 c 0,45.9 -14.9,88.3 -40,122.7 l 126.6,126.7 c 12.5,12.5 12.5,32.8 0,45.3 -12.5,12.5 -32.8,12.5 -45.3,0 L 330.7,376 C 296.3,401.2 253.9,416 208,416 93.1,416 0,322.9 0,208 0,93.1 93.1,0 208,0 322.9,0 416,93.1 416,208 Z M 208,352 C 287.52906,352 351.99994,287.529 351.99994,208 351.99994,128.471 287.52906,64 208,64 172.64353,64 140.26323,76.742382 115.20089,97.885338 83.889273,124.30027 64.000063,163.82745 64.000063,208 c 0,79.529 64.470877,144 143.999937,144 z"
     id="path1"
     style="fill:#cccccc"
     sodipodi:nodetypes="sccsccssssssssss" />
</svg>
